<svg width="78" height="68" viewBox="0 0 78 68" fill="none" xmlns="http://www.w3.org/2000/svg">
<g filter="url(#filter0_d_113_227)">
<path d="M60 22.2002L55 24.9502L50 29.7002V46.0002H57C58.657 46.0002 60 44.6572 60 43.0002V22.2002Z" fill="#4CAF50"/>
<path d="M18 22.2002L21.614 23.9102L28 29.7002V46.0002H21C19.343 46.0002 18 44.6572 18 43.0002V22.2002Z" fill="#1E88E5"/>
<path d="M50 17.2002L39 25.4502L28 17.2002L27 23.0002L28 29.7002L39 37.9502L50 29.7002L51 23.0002L50 17.2002Z" fill="#E53935"/>
<path d="M18 18.298V22.2L28 29.7V17.2L24.876 14.859C24.132 14.301 23.228 14 22.298 14C19.924 14 18 15.924 18 18.298Z" fill="#C62828"/>
<path d="M60 18.298V22.2L50 29.7V17.2L53.124 14.859C53.868 14.301 54.772 14 55.702 14C58.076 14 60 15.924 60 18.298Z" fill="#FBC02D"/>
</g>
<defs>
<filter id="filter0_d_113_227" x="0" y="0" width="78" height="68.0002" filterUnits="userSpaceOnUse" color-interpolation-filters="sRGB">
<feFlood flood-opacity="0" result="BackgroundImageFix"/>
<feColorMatrix in="SourceAlpha" type="matrix" values="0 0 0 0 0 0 0 0 0 0 0 0 0 0 0 0 0 0 127 0" result="hardAlpha"/>
<feOffset dy="4"/>
<feGaussianBlur stdDeviation="9"/>
<feComposite in2="hardAlpha" operator="out"/>
<feColorMatrix type="matrix" values="0 0 0 0 0 0 0 0 0 0 0 0 0 0 0 0 0 0 0.15 0"/>
<feBlend mode="normal" in2="BackgroundImageFix" result="effect1_dropShadow_113_227"/>
<feBlend mode="normal" in="SourceGraphic" in2="effect1_dropShadow_113_227" result="shape"/>
</filter>
</defs>
</svg>
